<svg width="29" height="29" viewBox="0 0 29 29" fill="none" xmlns="http://www.w3.org/2000/svg">
<mask id="mask0_329_4416" style="mask-type:alpha" maskUnits="userSpaceOnUse" x="0" y="0" width="29" height="29">
<rect width="29" height="29" fill="#D9D9D9"/>
</mask>
<g mask="url(#mask0_329_4416)">
<path d="M6.04166 9.5502V22.5863C6.04166 22.6949 6.0765 22.784 6.14618 22.8536C6.21586 22.9233 6.30497 22.9582 6.41352 22.9582H22.5865C22.695 22.9582 22.7841 22.9233 22.8538 22.8536C22.9235 22.784 22.9583 22.6949 22.9583 22.5863V9.5502H18.7292V16.7075C18.7292 17.1241 18.5572 17.4386 18.2132 17.6509C17.8692 17.8629 17.5153 17.876 17.1514 17.6901L14.5 16.3703L11.8486 17.6901C11.4847 17.876 11.1308 17.8629 10.7868 17.6509C10.4428 17.4386 10.2708 17.1241 10.2708 16.7075V9.5502H6.04166ZM6.41352 24.7707C5.81097 24.7707 5.29622 24.5573 4.86927 24.1306C4.44253 23.7036 4.22916 23.1889 4.22916 22.5863V8.46512C4.22916 8.20653 4.27064 7.95983 4.35361 7.72501C4.43639 7.4904 4.56064 7.2739 4.72639 7.07553L6.42289 5.02379C6.62105 4.765 6.86886 4.56784 7.16631 4.43231C7.46376 4.29677 7.77823 4.229 8.10972 4.229H20.867C21.1985 4.229 21.5149 4.29677 21.8161 4.43231C22.1174 4.56784 22.3672 4.765 22.5656 5.02379L24.2736 7.0988C24.4393 7.29716 24.5636 7.51557 24.6464 7.75401C24.7293 7.99266 24.7708 8.24138 24.7708 8.50016V22.5863C24.7708 23.1889 24.5575 23.7036 24.1307 24.1306C23.7038 24.5573 23.189 24.7707 22.5865 24.7707H6.41352ZM6.51351 7.738H22.475L21.1573 6.16928C21.1186 6.13062 21.0741 6.09961 21.0238 6.07624C20.9734 6.05308 20.9212 6.0415 20.867 6.0415H8.1215C8.06733 6.0415 8.01497 6.05308 7.96442 6.07624C7.91407 6.09961 7.86956 6.13062 7.8309 6.16928L6.51351 7.738ZM12.0833 9.5502V15.5339L14.5 14.3255L16.9167 15.5339V9.5502H12.0833Z" fill="#1C1B1F"/>
</g>
</svg>
