<svg width="32" height="32" viewBox="0 0 32 32" fill="none" xmlns="http://www.w3.org/2000/svg">
<mask id="mask0_329_4582" style="mask-type:alpha" maskUnits="userSpaceOnUse" x="0" y="0" width="32" height="32">
<rect width="32" height="32" fill="#D9D9D9"/>
</mask>
<g mask="url(#mask0_329_4582)">
<path d="M8 25.3336H12.4617V18.6156C12.4617 18.2743 12.5771 17.9881 12.808 17.757C13.0391 17.5261 13.3253 17.4106 13.6667 17.4106H18.3333C18.6747 17.4106 18.9609 17.5261 19.192 17.757C19.4229 17.9881 19.5383 18.2743 19.5383 18.6156V25.3336H24V13.5386C24 13.4704 23.985 13.4085 23.955 13.353C23.9252 13.2974 23.8847 13.2482 23.8333 13.2053L16.2437 7.50031C16.1752 7.44053 16.094 7.41064 16 7.41064C15.906 7.41064 15.8248 7.44053 15.7563 7.50031L8.16667 13.2053C8.11533 13.2482 8.07478 13.2974 8.045 13.353C8.015 13.4085 8 13.4704 8 13.5386V25.3336ZM6 25.3336V13.5386C6 13.1571 6.08533 12.7956 6.256 12.4543C6.42689 12.1128 6.66289 11.8315 6.964 11.6106L14.554 5.89265C14.9751 5.57131 15.4564 5.41064 15.998 5.41064C16.5396 5.41064 17.0222 5.57131 17.446 5.89265L25.036 11.6106C25.3371 11.8315 25.5731 12.1128 25.744 12.4543C25.9147 12.7956 26 13.1571 26 13.5386V25.3336C26 25.879 25.803 26.3486 25.409 26.7426C25.015 27.1366 24.5453 27.3336 24 27.3336H18.7437C18.4021 27.3336 18.1159 27.2181 17.885 26.987C17.6539 26.7561 17.5383 26.4699 17.5383 26.1283V19.4106H14.4617V26.1283C14.4617 26.4699 14.3461 26.7561 14.115 26.987C13.8841 27.2181 13.5979 27.3336 13.2563 27.3336H8C7.45467 27.3336 6.985 27.1366 6.591 26.7426C6.197 26.3486 6 25.879 6 25.3336Z" fill="#1C1B1F"/>
</g>
</svg>
