<svg width="28" height="28" viewBox="0 0 28 28" fill="none" xmlns="http://www.w3.org/2000/svg">
<mask id="mask0_329_4602" style="mask-type:alpha" maskUnits="userSpaceOnUse" x="0" y="0" width="28" height="28">
<rect width="28" height="28" fill="#D9D9D9"/>
</mask>
<g mask="url(#mask0_329_4602)">
<path d="M3.53797 24.4983C3.369 24.3293 3.28452 24.1245 3.28452 23.8838C3.28452 23.6429 3.369 23.4379 3.53797 23.2689L5.71206 21.0768C5.12717 20.4995 4.64553 19.9457 4.26714 19.4154C3.88875 18.8852 3.69956 18.1677 3.69956 17.2629C3.69956 16.6854 3.80874 16.1317 4.0271 15.6016C4.24546 15.0714 4.56328 14.5975 4.98056 14.18L6.12039 13.0696L7.23076 14.18C7.80224 14.7394 8.20085 15.4137 8.4266 16.2027C8.65254 16.9918 8.64739 17.7206 8.41114 18.3891L10.4616 16.3273C9.88425 15.7379 9.41389 15.1801 9.05047 14.6537C8.68706 14.1271 8.50535 13.4226 8.50535 12.54C8.50535 11.9553 8.60967 11.3978 8.81831 10.8676C9.02695 10.3373 9.3436 9.86355 9.76826 9.44627L10.897 8.33561L12.0074 9.44627C12.5489 9.98761 12.927 10.6483 13.1417 11.4284C13.3563 12.2084 13.3418 12.9626 13.0979 13.6912L14.85 11.9389C14.3191 11.3495 13.8506 10.7923 13.4444 10.2673C13.0384 9.74232 12.8354 9.05058 12.8354 8.19211C12.8354 7.60722 12.9543 7.03507 13.1921 6.47565C13.4299 5.91623 13.7575 5.42789 14.1748 5.01061L16.1447 3.05207C16.3063 2.89048 16.5063 2.80852 16.7449 2.80619C16.9833 2.80405 17.1893 2.88971 17.363 3.06315C17.5244 3.22473 17.6051 3.42297 17.6051 3.65786C17.6051 3.89255 17.5244 4.09672 17.363 4.27036L16.4676 5.19465L16.6358 5.39648C17.0681 5.92596 17.3692 6.55158 17.5391 7.27336C17.7089 7.99494 17.6755 8.68104 17.4391 9.33165L23.2389 3.53215C23.4123 3.35871 23.6173 3.27305 23.8537 3.27519C24.09 3.27753 24.2948 3.36911 24.4683 3.54994C24.6298 3.72358 24.7117 3.92853 24.7138 4.16478C24.7162 4.40103 24.6306 4.60597 24.4572 4.77961L18.6104 10.6264C19.2655 10.4125 19.9512 10.3825 20.6676 10.5365C21.3841 10.6905 22.0056 10.98 22.5322 11.4048L22.7451 11.5731L23.6113 10.6891C23.7922 10.508 24.0049 10.4175 24.2495 10.4175C24.4941 10.4175 24.7069 10.508 24.888 10.6891C25.0688 10.8701 25.1592 11.081 25.1592 11.3217C25.1592 11.5626 25.0688 11.7736 24.888 11.9546L22.9181 13.9534C22.5008 14.3709 22.0222 14.6888 21.4822 14.9071C20.9422 15.1255 20.3836 15.2347 19.8063 15.2347C18.9896 15.2347 18.3045 15.0354 17.7509 14.6368C17.1975 14.2382 16.6404 13.7547 16.0796 13.1863L14.2847 14.9812C15.0176 14.7358 15.7717 14.7242 16.5472 14.9462C17.3228 15.1685 17.9836 15.5466 18.5296 16.0805L19.64 17.209L18.5407 18.3083C18.1159 18.7331 17.6354 19.0547 17.0993 19.2731C16.563 19.4915 16.0024 19.6006 15.4176 19.6006C14.6085 19.6006 13.9303 19.3983 13.3829 18.9937C12.8353 18.5891 12.2751 18.1086 11.7023 17.5523L9.57752 19.6881C10.3075 19.4682 11.0483 19.4693 11.8 19.6914C12.5515 19.9136 13.1965 20.2842 13.7349 20.8032L14.8634 21.9317L13.753 23.0309C13.3357 23.4558 12.8571 23.7774 12.3171 23.9958C11.7772 24.2141 11.2185 24.3233 10.6412 24.3233C9.82747 24.3233 9.14877 24.1266 8.6051 23.7333C8.06143 23.3399 7.51067 22.8665 6.95281 22.3131L4.76735 24.4983C4.60577 24.6599 4.40578 24.7456 4.16739 24.7553C3.92881 24.765 3.719 24.6793 3.53797 24.4983Z" fill="#1C1B1F"/>
</g>
</svg>
