<svg width="16" height="18" viewBox="0 0 16 18" fill="none" xmlns="http://www.w3.org/2000/svg">
<path d="M0.21575 2.2155C0.359416 2.07183 0.5375 2 0.75 2H7.05775V0.75C7.05775 0.5375 7.12967 0.359417 7.2735 0.21575C7.41733 0.0719168 7.5955 0 7.808 0C8.02067 0 8.19875 0.0719168 8.34225 0.21575C8.48592 0.359417 8.55775 0.5375 8.55775 0.75V4.75C8.55775 4.9625 8.48583 5.14067 8.342 5.2845C8.19817 5.42817 8.01992 5.5 7.80725 5.5C7.59475 5.5 7.41667 5.42817 7.273 5.2845C7.1295 5.14067 7.05775 4.9625 7.05775 4.75V3.5H0.75C0.5375 3.5 0.359416 3.42808 0.21575 3.28425C0.0719166 3.14042 0 2.96225 0 2.74975C0 2.53708 0.0719166 2.359 0.21575 2.2155ZM11.158 2.2155C11.3017 2.07183 11.4798 2 11.6923 2H14.75C14.9625 2 15.1406 2.07192 15.2842 2.21575C15.4281 2.35958 15.5 2.53783 15.5 2.7505C15.5 2.963 15.4281 3.14108 15.2842 3.28475C15.1406 3.42825 14.9625 3.5 14.75 3.5H11.6923C11.4798 3.5 11.3017 3.42808 11.158 3.28425C11.0142 3.14042 10.9422 2.96225 10.9422 2.74975C10.9422 2.53708 11.0142 2.359 11.158 2.2155ZM10.9422 6.827C10.9422 6.6145 11.0142 6.43642 11.158 6.29275C11.3018 6.14892 11.4801 6.077 11.6928 6.077C11.9053 6.077 12.0833 6.14892 12.227 6.29275C12.3705 6.43642 12.4423 6.6145 12.4423 6.827V8.077H14.75C14.9625 8.077 15.1406 8.14892 15.2842 8.29275C15.4281 8.43658 15.5 8.61475 15.5 8.82725C15.5 9.03992 15.4281 9.218 15.2842 9.3615C15.1406 9.50517 14.9625 9.577 14.75 9.577H12.4423V10.827C12.4423 11.0395 12.3703 11.2176 12.2265 11.3613C12.0827 11.5051 11.9045 11.577 11.692 11.577C11.4793 11.577 11.3012 11.5051 11.1577 11.3613C11.0141 11.2176 10.9422 11.0395 10.9422 10.827V6.827ZM0.21575 8.2925C0.359416 8.14883 0.5375 8.077 0.75 8.077H7.80775C8.02025 8.077 8.19833 8.14892 8.342 8.29275C8.48583 8.43658 8.55775 8.61475 8.55775 8.82725C8.55775 9.03992 8.48583 9.218 8.342 9.3615C8.19833 9.50517 8.02025 9.577 7.80775 9.577H0.75C0.5375 9.577 0.359416 9.50508 0.21575 9.36125C0.0719166 9.21742 0 9.03925 0 8.82675C0 8.61408 0.0719166 8.436 0.21575 8.2925ZM0.21575 14.3693C0.359416 14.2257 0.5375 14.154 0.75 14.154H3.05775V12.904C3.05775 12.6915 3.12967 12.5133 3.2735 12.3695C3.41733 12.2258 3.5955 12.154 3.808 12.154C4.02067 12.154 4.19875 12.2258 4.34225 12.3695C4.48592 12.5133 4.55775 12.6915 4.55775 12.904V16.904C4.55775 17.1165 4.48583 17.2946 4.342 17.4383C4.19817 17.5821 4.01992 17.654 3.80725 17.654C3.59475 17.654 3.41667 17.5821 3.273 17.4383C3.1295 17.2946 3.05775 17.1165 3.05775 16.904V15.654H0.75C0.5375 15.654 0.359416 15.5821 0.21575 15.4383C0.0719166 15.2944 0 15.1162 0 14.9035C0 14.691 0.0719166 14.5129 0.21575 14.3693ZM7.158 14.3693C7.30167 14.2257 7.47975 14.154 7.69225 14.154H14.75C14.9625 14.154 15.1406 14.2259 15.2842 14.3698C15.4281 14.5136 15.5 14.6918 15.5 14.9043C15.5 15.1169 15.4281 15.295 15.2842 15.4385C15.1406 15.5822 14.9625 15.654 14.75 15.654H7.69225C7.47975 15.654 7.30167 15.5821 7.158 15.4383C7.01417 15.2944 6.94225 15.1162 6.94225 14.9035C6.94225 14.691 7.01417 14.5129 7.158 14.3693Z" fill="#1C1B1F"/>
</svg>
